<svg t="1681971355167" class="icon" viewBox="0 0 1024 1024" version="1.1" xmlns="http://www.w3.org/2000/svg" p-id="3368" width="128" height="128"><path d="M512 512m-512 0a512 512 0 1 0 1024 0 512 512 0 1 0-1024 0Z" fill="#4ABCE5" p-id="3369"></path><path d="M837.193143 339.821714c-73.947429 100.937143-193.316571 166.546286-328.045714 166.546286-40.301714 0-79.213714-5.924571-116.004572-16.822857l-13.824-50.249143a67.415771 67.415771 0 0 0-26.916571-37.741714c-6.363429-4.388571-14.921143 0.804571-14.043429 8.484571l7.387429 62.171429c-65.828571-28.964571-122.587429-74.898286-164.571429-132.315429-5.851429-7.972571-18.212571-1.609143-15.286857 7.753143 30.427429 96.548571 100.425143 175.542857 190.976 217.892571l19.821714 166.473143c4.388571 36.864 35.620571 64.585143 72.777143 64.585143H577.097143c36.132571 0 66.852571-26.258286 72.411428-61.952l22.747429-145.481143a8.265143 8.265143 0 0 0-11.556571-8.850285c-26.989714 12.141714-48.201143 34.377143-58.88 61.952l-32.841143 84.406857a18.578286 18.578286 0 0 1-17.408 11.849143H475.940571a18.724571 18.724571 0 0 1-17.993142-13.677715l-37.668572-136.704c28.379429 7.241143 58.148571 11.044571 88.795429 11.044572 161.060571 0 297.398857-105.764571 343.332571-251.611429 2.998857-9.435429-9.435429-15.725714-15.286857-7.753143z" fill="#FFFFFF" p-id="3370"></path></svg>