<svg xmlns="http://www.w3.org/2000/svg" width="24" height="24" viewBox="0 0 512 512"><rect width="512" height="512" fill="none"/><defs><linearGradient id="meteoconsDustDayFill0" x1="6" x2="18" y1="169.6" y2="190.4" gradientUnits="userSpaceOnUse"><stop offset="0" stop-color="#dfc24e"/><stop offset=".5" stop-color="#dfc24e"/><stop offset="1" stop-color="#c6a006"/></linearGradient><linearGradient id="meteoconsDustDayFill1" x1="66" x2="78" y1="169.6" y2="190.4" href="#meteoconsDustDayFill0"/><linearGradient id="meteoconsDustDayFill2" x1="38" x2="50" y1="137.6" y2="158.4" href="#meteoconsDustDayFill0"/><linearGradient id="meteoconsDustDayFill3" x1="98" x2="110" y1="137.6" y2="158.4" href="#meteoconsDustDayFill0"/><linearGradient id="meteoconsDustDayFill4" x1="70" x2="82" y1="101.6" y2="122.4" href="#meteoconsDustDayFill0"/><linearGradient id="meteoconsDustDayFill5" x1="130" x2="142" y1="101.6" y2="122.4" href="#meteoconsDustDayFill0"/><linearGradient id="meteoconsDustDayFill6" x1="102" x2="114" y1="69.6" y2="90.4" href="#meteoconsDustDayFill0"/><linearGradient id="meteoconsDustDayFill7" x1="162" x2="174" y1="69.6" y2="90.4" href="#meteoconsDustDayFill0"/><linearGradient id="meteoconsDustDayFill8" x1="134" x2="146" y1="33.6" y2="54.4" href="#meteoconsDustDayFill0"/><linearGradient id="meteoconsDustDayFill9" x1="194" x2="206" y1="33.6" y2="54.4" href="#meteoconsDustDayFill0"/><linearGradient id="meteoconsDustDayFilla" x1="166" x2="178" y1="1.6" y2="22.4" href="#meteoconsDustDayFill0"/><linearGradient id="meteoconsDustDayFillb" x1="226" x2="238" y1="1.6" y2="22.4" href="#meteoconsDustDayFill0"/><linearGradient id="meteoconsDustDayFillc" x1="150" x2="234" y1="119.2" y2="264.8" gradientUnits="userSpaceOnUse"><stop offset="0" stop-color="#fbbf24"/><stop offset=".5" stop-color="#fbbf24"/><stop offset="1" stop-color="#f59e0b"/></linearGradient><symbol id="meteoconsDustDayFilld" viewBox="0 0 384 384"><circle cx="192" cy="192" r="84" fill="url(#meteoconsDustDayFillc)" stroke="#f8af18" stroke-miterlimit="10" stroke-width="6"/><path fill="none" stroke="#fbbf24" stroke-linecap="round" stroke-miterlimit="10" stroke-width="24" d="M192 61.7V12m0 360v-49.7m92.2-222.5l35-35M64.8 319.2l35.1-35.1m0-184.4l-35-35m254.5 254.5l-35.1-35.1M61.7 192H12m360 0h-49.7"><animateTransform additive="sum" attributeName="transform" dur="1.5s" repeatCount="indefinite" type="rotate" values="0 192 192; 45 192 192"/></path></symbol><symbol id="meteoconsDustDayFille" viewBox="0 0 244 192"><circle cx="12" cy="180" r="12" fill="url(#meteoconsDustDayFill0)"><animate attributeName="opacity" begin="-0.25s" dur="0.168s" repeatCount="indefinite" values="0.5; 1; .5"/></circle><circle cx="72" cy="180" r="12" fill="url(#meteoconsDustDayFill1)"><animate attributeName="opacity" begin="-0.27s" dur="0.168s" repeatCount="indefinite" values="0.5; 1; .5"/></circle><circle cx="44" cy="148" r="12" fill="url(#meteoconsDustDayFill2)"><animate attributeName="opacity" begin="-0.29s" dur="0.168s" repeatCount="indefinite" values="0.5; 1; .5"/></circle><circle cx="104" cy="148" r="12" fill="url(#meteoconsDustDayFill3)"><animate attributeName="opacity" begin="-0.31s" dur="0.168s" repeatCount="indefinite" values="0.5; 1; .5"/></circle><circle cx="76" cy="112" r="12" fill="url(#meteoconsDustDayFill4)"><animate attributeName="opacity" begin="-0.33s" dur="0.168s" repeatCount="indefinite" values="0.5; 1; .5"/></circle><circle cx="136" cy="112" r="12" fill="url(#meteoconsDustDayFill5)"><animate attributeName="opacity" begin="-0.35s" dur="0.168s" repeatCount="indefinite" values="0.5; 1; .5"/></circle><circle cx="108" cy="80" r="12" fill="url(#meteoconsDustDayFill6)"><animate attributeName="opacity" begin="-0.37s" dur="0.168s" repeatCount="indefinite" values="0.5; 1; .5"/></circle><circle cx="168" cy="80" r="12" fill="url(#meteoconsDustDayFill7)"><animate attributeName="opacity" begin="-0.39s" dur="0.168s" repeatCount="indefinite" values="0.5; 1; .5"/></circle><circle cx="140" cy="44" r="12" fill="url(#meteoconsDustDayFill8)"><animate attributeName="opacity" begin="-0.41s" dur="0.168s" repeatCount="indefinite" values="0.5; 1; .5"/></circle><circle cx="200" cy="44" r="12" fill="url(#meteoconsDustDayFill9)"><animate attributeName="opacity" begin="-0.43s" dur="0.168s" repeatCount="indefinite" values="0.5; 1; .5"/></circle><circle cx="172" cy="12" r="12" fill="url(#meteoconsDustDayFilla)"><animate attributeName="opacity" begin="-0.45s" dur="0.168s" repeatCount="indefinite" values="0.5; 1; .5"/></circle><circle cx="232" cy="12" r="12" fill="url(#meteoconsDustDayFillb)"><animate attributeName="opacity" begin="-0.47s" dur="0.168s" repeatCount="indefinite" values="0.5; 1; .5"/></circle></symbol><clipPath id="meteoconsDustDayFillf"><path fill="none" d="M0 0h512L0 512V0z"/></clipPath></defs><g clip-path="url(#meteoconsDustDayFillf)"><use width="384" height="384" href="#meteoconsDustDayFilld" transform="translate(64 64)"/></g><use width="244" height="192" href="#meteoconsDustDayFille" transform="translate(192 182)"/></svg>
