<svg t="1708613266885" class="icon" viewBox="0 0 1024 1024" version="1.1" xmlns="http://www.w3.org/2000/svg" p-id="3548" width="200" height="200"><path d="M0 0m153.6 0l716.8 0q153.6 0 153.6 153.6l0 716.8q0 153.6-153.6 153.6l-716.8 0q-153.6 0-153.6-153.6l0-716.8q0-153.6 153.6-153.6Z" fill="#FFEEF3" p-id="3549"></path><path d="M512 737.28c-71.5776 0.1024-127.8976-21.504-168.96-64.8704-41.0624-43.3664-61.5424-102.8352-61.44-178.432 71.7056 0.0512 128.0256 21.6832 168.96 64.896 40.8576 43.136 61.3376 102.4512 61.44 177.9712 0-75.392 20.48-134.7072 61.44-177.9712 41.0624-43.3664 97.3824-64.9984 168.96-64.896-0.0256 75.7248-20.5056 135.2192-61.44 178.432C640 715.6224 583.68 737.2544 512 737.28z" fill="#F0406C" opacity=".3" p-id="3550"></path><path d="M512 737.28c63.36-66.9696 95.0272-138.6496 95.0272-215.04S575.36 374.1696 512 307.2c-63.36 66.7136-95.0272 138.3936-95.0272 215.04 0 76.6464 31.6672 148.3264 95.0272 215.04z" fill="#F0406C" p-id="3551"></path></svg>
