<svg t="1680950673518" class="icon" viewBox="0 0 1024 1024" version="1.1" xmlns="http://www.w3.org/2000/svg" p-id="10605" width="1200" height="1200"><path d="M672 672m-240 0a240 240 0 1 0 480 0 240 240 0 1 0-480 0Z" fill="#FFE8E2" p-id="10606"></path><path d="M938.3 275.9c-13.9-32.1-33.8-60.9-59-85.6-25.2-24.6-54.5-43.8-87.1-57.4-33.7-13.9-69.4-21-106.2-21-51.1 0-101 14-144.4 40.3-10.4 6.3-20.2 13.2-29.6 20.8-9.4-7.6-19.2-14.5-29.6-20.8C439.1 126 389.3 112 338.1 112c-36.8 0-72.5 7-106.2 21-32.6 13.4-61.9 32.8-87.1 57.4-25.3 24.7-45.1 53.5-59 85.6C71.4 309.3 64 344.8 64 381.3c0 34.4 7.1 70.3 21.1 106.8 11.7 30.5 28.5 62.1 50 94.1 34 50.5 80.8 103.3 138.9 156.7 96.3 88.6 191.6 149.8 195.6 152.3l24.6 15.7c10.9 6.9 24.9 6.9 35.8 0l24.6-15.7c4-2.6 99.3-63.7 195.6-152.3 58.1-53.4 104.8-106.2 138.9-156.7 21.5-31.9 38.4-63.6 50-94.1 14-36.5 21.1-72.4 21.1-106.8-0.1-36.5-7.5-72-21.9-105.4zM512.1 825S142.9 589.2 142.9 381.2c0-105.3 87.4-190.7 195.3-190.7 75.8 0 141.6 42.2 173.9 103.8 32.4-61.6 98.1-103.8 173.9-103.8 107.9 0 195.3 85.4 195.3 190.7 0 208-369.2 443.8-369.2 443.8z" fill="#FF440E" p-id="10607"></path></svg>